<svg id="Layer_1" data-name="Layer 1" xmlns="http://www.w3.org/2000/svg" viewBox="0 0 50.38 51.84"><defs><style>.cls-1{fill:none;stroke:#0d97ff;stroke-linecap:round;stroke-linejoin:round;stroke-width:2.22px;}</style></defs><title>directdeposit_icon</title><polyline class="cls-1" points="9.61 23.2 9.61 6.21 31.7 6.21 31.7 23.2"/><path class="cls-1" d="M27.33,36c0-2.81,3-5.17,6.74-5.17s6.86,2.35,6.86,5.17" transform="translate(-13.48 -10.22)"/><line class="cls-1" x1="13.86" y1="11.31" x2="13.86" y2="13.01"/><polyline class="cls-1" points="40.19 18.24 20.65 30.25 1.11 18.24"/><path class="cls-1" d="M40.85,50.41H17.19a2.61,2.61,0,0,1-2.61-2.6V28.32" transform="translate(-13.48 -10.22)"/><line class="cls-1" x1="40.19" y1="18.1" x2="40.19" y2="31.63"/><line class="cls-1" x1="31.83" y1="10.33" x2="40.19" y2="18.05"/><polyline class="cls-1" points="15.05 5.97 20.65 1.11 26.4 6.09"/><line class="cls-1" x1="1.11" y1="18.05" x2="9.47" y2="10.32"/><polyline class="cls-1" points="36.49 43.7 36.49 50.72 49.27 39.86 36.49 29 36.49 36.03"/><polyline class="cls-1" points="36.49 36.03 28.37 36.03 28.37 43.7 36.49 43.7"/></svg>