<svg id="Layer_1" data-name="Layer 1" xmlns="http://www.w3.org/2000/svg" viewBox="0 0 48.22 38.22"><defs><style>.cls-1{fill:none;stroke:#0d97ff;stroke-linecap:round;stroke-linejoin:round;stroke-width:2.22px;}</style></defs><title>connectaccounts_icon</title><polyline class="cls-1" points="35.11 19.11 1.11 19.11 1.11 17.11 37.11 17.11"/><path class="cls-1" d="M176.7,46.14v5a3,3,0,0,1-3.07,3H136.74a3.05,3.05,0,0,1-3.07-3v-21a3.05,3.05,0,0,1,3.07-3h18.44" transform="translate(-132.55 -17.02)"/><path class="cls-1" d="M176.18,28.52a3.1,3.1,0,0,0-2.59-1.39H155.67" transform="translate(-132.55 -17.02)"/><path class="cls-1" d="M155.65,27.15s6.87-9,13-9h11" transform="translate(-132.55 -17.02)"/><path class="cls-1" d="M179.67,37.17L173.25,42a3.83,3.83,0,0,1-5.42,0h0a3.84,3.84,0,0,1,0-5.43l11.84-11.46" transform="translate(-132.55 -17.02)"/></svg>